<?xml version="1.0" encoding="UTF-8"?>
<svg width="16pt" version="1.1" xmlns="http://www.w3.org/2000/svg" height="16pt" viewBox="0 0 16 16" xmlns:xlink="http://www.w3.org/1999/xlink">
 <defs>
  <clipPath id="Clip0">
   <path d="M0 0 L16 0 L16 16 L0 16 L0 0 Z" transform="translate(0, 1.42109e-14)"/>
  </clipPath>
  <linearGradient id="Grad0" y1="0" x1="0" y2="16" gradientUnits="userSpaceOnUse" x2="16">
   <stop offset="0%" stop-color="#ffffff" stop-opacity="1"/>
   <stop offset="50%" stop-color="#ff5e00" stop-opacity="1"/>
  </linearGradient>
 </defs>
 <g id="Hintergrund">
  <g id="Gruppe3" clip-path="url(#Clip0)">
   <g transform="translate(0, 1.42109e-14)">
    <path style="fill:url(#Grad0); fill-rule:evenodd;" d="M0 0 L16 0 L16 16 L0 16 L0 0 Z"/>
    <path style="fill:none; stroke:none;" d="M0 0 L16 0 L16 16 L0 16 L0 0 Z"/>
   </g>
   <path style="fill:#ffffff; fill-rule:evenodd;stroke:none;" d="M9.64207 0 C9.63507 0 9.62835 0.00180155 9.62129 0.00212911 L9.62129 0 L0.476265 0 L0.476265 0.00212911 C0.211601 0.013266 0 0.229617 0 0.497065 L0 13.4456 C0 13.7131 0.211601 13.9295 0.476265 13.9406 L0.476265 13.9427 L9.62129 13.9427 L9.62129 13.9406 C9.62835 13.9409 9.6349 13.9427 9.64207 13.9427 C9.91656 13.9427 10.1392 13.7203 10.1392 13.4456 L10.1392 0.497065 C10.1392 0.22241 9.91656 0 9.64207 0 Z M5.04877 13.5342 C4.82407 13.5342 4.64195 13.352 4.64195 13.1273 C4.64195 12.9026 4.82407 12.7204 5.04877 12.7204 C5.27347 12.7204 5.4556 12.9026 5.4556 13.1273 C5.4556 13.352 5.27347 13.5342 5.04877 13.5342 Z M8.50844 12.312 L1.63074 12.312 L1.63074 1.63074 L8.5086 1.63074 L8.5086 12.312 L8.50844 12.312 Z" transform="translate(2.93043, 1.02864)"/>
  </g>
 </g>
</svg>
