<?xml version="1.0" encoding="UTF-8"?>
<svg width="60pt" version="1.1" xmlns="http://www.w3.org/2000/svg" height="60pt" viewBox="0 0 60 60" xmlns:xlink="http://www.w3.org/1999/xlink">
 <defs>
  <clipPath id="Clip0">
   <path d="M0 0 L16 0 L16 15.5612 L0 15.5612 L0 0 Z" transform="translate(35.5, 35.5)"/>
  </clipPath>
  <clipPath id="Clip1">
   <path d="M0 0 L16 0 L16 15.5612 L0 15.5612 L0 0 Z" transform="translate(35.5, 35.5)"/>
  </clipPath>
  <clipPath id="Clip2">
   <path d="M0 0 L16 0 L16 15.5612 L0 15.5612 L0 0 Z" transform="translate(35.5, 10.5)"/>
  </clipPath>
  <clipPath id="Clip3">
   <path d="M0 0 L16 0 L16 15.5612 L0 15.5612 L0 0 Z" transform="translate(35.5, 10.5)"/>
  </clipPath>
  <clipPath id="Clip4">
   <path d="M0 0 L16 0 L16 15.5612 L0 15.5612 L0 0 Z" transform="translate(10, 22.2194)"/>
  </clipPath>
  <clipPath id="Clip5">
   <path d="M0 0 L16 0 L16 15.5612 L0 15.5612 L0 0 Z" transform="translate(10, 22.2194)"/>
  </clipPath>
 </defs>
 <g id="Hintergrund">
  <g transform="translate(0, -1.80478e-12)">
   <path style="fill:#ff5d00; fill-rule:evenodd;" d="M0 0 L60 0 L60 60 L0 60 L0 0 Z"/>
   <path style="fill:none; stroke:none;" d="M0 0 L60 0 L60 60 L0 60 L0 0 Z"/>
  </g>
  <g id="Kopie von Layer_1 (5)" clip-path="url(#Clip0)">
   <g id="Kopie von Gruppe25 (4)" clip-path="url(#Clip1)">
    <path style="fill:#ffffff; fill-rule:evenodd;stroke:none;" d="M0.578304 0 C2.33342 0 3.7561 1.42268 3.7561 3.1778 C3.7561 4.93291 2.33342 6.35558 0.578304 6.35558 C0.289682 6.35558 0.0525344 6.14354 0.00914568 5.86725 L0 5.86725 L0 0.578516 C0 0.259269 0.259056 0 0.578304 0 Z" transform="translate(47.7439, 38.6716)"/>
    <path style="fill:#ffffff; fill-rule:evenodd;stroke:none;" d="M0 0.578304 C0 0.259056 0.258843 0 0.578304 0 C0.710809 0 0.8314 0.0463662 0.928816 0.121234 L6.01764 3.05932 L10.605 3.05932 C10.9244 3.05932 11.1832 3.31818 11.1832 3.63764 L11.1832 9.12696 L11.176 9.12696 C11.1405 9.41216 10.8999 9.63376 10.605 9.63376 L6.53446 9.63376 L0.970504 12.846 C0.867344 12.9418 0.730164 13.0014 0.578304 13.0014 C0.259056 13.0014 0 12.7424 0 12.4233 C0 12.4012 0.0040411 12.3804 0.00638069 12.3591 L0 12.3591 L0 11.3799 L0 1.5907 L0 0.611908 L0.00340304 0.611908 C0.00276496 0.600635 0 0.590002 0 0.578304 Z" transform="translate(35.5, 35.5)"/>
    <path style="fill:#ffffff; fill-rule:evenodd;stroke:none;" d="M0.120382 3.33796 L0.128464 3.32391 C0.13123 3.31881 0.132506 3.31349 0.135483 3.30839 C0.13846 3.30329 0.14229 3.29945 0.145266 3.29477 L1.91166 0.23566 L1.91826 0.239488 C2.01481 0.10677 2.15858 0.0255227 2.31321 0.00638069 L2.31321 0 L3.84926 0 L3.84926 0.00382842 C3.93178 0.0106345 4.0141 0.0333922 4.09066 0.0776318 C4.36738 0.23715 4.46201 0.591065 4.30229 0.86756 C4.28868 0.89096 4.27209 0.911376 4.2557 0.932008 L4.26252 0.936048 L2.2041 4.50158 C2.20389 4.50199 2.20389 4.50222 2.20368 4.50265 C2.20346 4.50306 2.20325 4.50327 2.20304 4.5035 L2.1824 4.53922 L2.17879 4.5371 C2.00992 4.78487 1.6777 4.86654 1.41397 4.71406 C1.38311 4.69618 1.35525 4.67513 1.3291 4.65301 L1.32378 4.66217 L0.263948 4.05046 L0.268839 4.04196 C0.0635941 3.87243 0 3.58148 0.121871 3.33881 L0.120382 3.33796 Z" transform="translate(42.0585, 46.1947)"/>
   </g>
  </g>
  <path style="fill:none;stroke:#ffffff; stroke-width:2; stroke-linecap:butt; stroke-linejoin:miter; stroke-dasharray:none;" d="M0 0 L50 0 L50 50 L0 50 L0 0 Z" transform="translate(5, 5)"/>
  <path style="stroke:#ffffff; stroke-width:2; stroke-linecap:butt; stroke-linejoin:miter; stroke-dasharray:none;" d="M 0 0 L 50 0" transform="translate(30.5, 5) rotate(-270)"/>
  <path style="stroke:#ffffff; stroke-width:2; stroke-linecap:butt; stroke-linejoin:miter; stroke-dasharray:none;" d="M 0 0 L 25 0" transform="translate(55, 30.5) rotate(-180)"/>
  <g id="Kopie von Layer_1 (6)" clip-path="url(#Clip2)">
   <g id="Kopie von Gruppe25 (5)" clip-path="url(#Clip3)">
    <path style="fill:#ffffff; fill-rule:evenodd;stroke:none;" d="M0.578304 0 C2.33342 0 3.7561 1.42268 3.7561 3.1778 C3.7561 4.93291 2.33342 6.35558 0.578304 6.35558 C0.289682 6.35558 0.0525344 6.14354 0.00914568 5.86725 L0 5.86725 L0 0.578516 C0 0.259269 0.259056 0 0.578304 0 Z" transform="translate(47.7439, 13.6716)"/>
    <path style="fill:#ffffff; fill-rule:evenodd;stroke:none;" d="M0 0.578304 C0 0.259056 0.258843 0 0.578304 0 C0.710809 0 0.8314 0.0463662 0.928816 0.121234 L6.01764 3.05932 L10.605 3.05932 C10.9244 3.05932 11.1832 3.31818 11.1832 3.63764 L11.1832 9.12696 L11.176 9.12696 C11.1405 9.41216 10.8999 9.63376 10.605 9.63376 L6.53446 9.63376 L0.970504 12.846 C0.867344 12.9418 0.730164 13.0014 0.578304 13.0014 C0.259056 13.0014 0 12.7424 0 12.4233 C0 12.4012 0.0040411 12.3804 0.00638069 12.3591 L0 12.3591 L0 11.3799 L0 1.5907 L0 0.611908 L0.00340304 0.611908 C0.00276496 0.600635 0 0.590002 0 0.578304 Z" transform="translate(35.5, 10.5)"/>
    <path style="fill:#ffffff; fill-rule:evenodd;stroke:none;" d="M0.120382 3.33796 L0.128464 3.32391 C0.13123 3.31881 0.132506 3.31349 0.135483 3.30839 C0.13846 3.30329 0.14229 3.29945 0.145266 3.29477 L1.91166 0.23566 L1.91826 0.239488 C2.01481 0.10677 2.15858 0.0255227 2.31321 0.00638069 L2.31321 0 L3.84926 0 L3.84926 0.00382842 C3.93178 0.0106345 4.0141 0.0333922 4.09066 0.0776318 C4.36738 0.23715 4.46201 0.591065 4.30229 0.86756 C4.28868 0.89096 4.27209 0.911376 4.2557 0.932008 L4.26252 0.936048 L2.2041 4.50158 C2.20389 4.50199 2.20389 4.50222 2.20368 4.50265 C2.20346 4.50306 2.20325 4.50327 2.20304 4.5035 L2.1824 4.53922 L2.17879 4.5371 C2.00992 4.78487 1.6777 4.86654 1.41397 4.71406 C1.38311 4.69618 1.35525 4.67513 1.3291 4.65301 L1.32378 4.66217 L0.263948 4.05046 L0.268839 4.04196 C0.0635941 3.87243 0 3.58148 0.121871 3.33881 L0.120382 3.33796 Z" transform="translate(42.0585, 21.1947)"/>
   </g>
  </g>
  <g id="Kopie von Layer_1 (7)" clip-path="url(#Clip4)">
   <g id="Kopie von Gruppe25 (6)" clip-path="url(#Clip5)">
    <path style="fill:#ffffff; fill-rule:evenodd;stroke:none;" d="M0.578304 0 C2.33342 0 3.7561 1.42268 3.7561 3.1778 C3.7561 4.93291 2.33342 6.35558 0.578304 6.35558 C0.289682 6.35558 0.0525344 6.14354 0.00914568 5.86725 L0 5.86725 L0 0.578516 C0 0.259269 0.259056 0 0.578304 0 Z" transform="translate(22.2439, 25.391)"/>
    <path style="fill:#ffffff; fill-rule:evenodd;stroke:none;" d="M0 0.578304 C0 0.259056 0.258843 0 0.578304 0 C0.710809 0 0.8314 0.0463662 0.928816 0.121234 L6.01764 3.05932 L10.605 3.05932 C10.9244 3.05932 11.1832 3.31818 11.1832 3.63764 L11.1832 9.12696 L11.176 9.12696 C11.1405 9.41216 10.8999 9.63376 10.605 9.63376 L6.53446 9.63376 L0.970504 12.846 C0.867344 12.9418 0.730164 13.0014 0.578304 13.0014 C0.259056 13.0014 0 12.7424 0 12.4233 C0 12.4012 0.0040411 12.3804 0.00638069 12.3591 L0 12.3591 L0 11.3799 L0 1.5907 L0 0.611908 L0.00340304 0.611908 C0.00276496 0.600635 0 0.590002 0 0.578304 Z" transform="translate(10, 22.2194)"/>
    <path style="fill:#ffffff; fill-rule:evenodd;stroke:none;" d="M0.120382 3.33796 L0.128464 3.32391 C0.13123 3.31881 0.132506 3.31349 0.135483 3.30839 C0.13846 3.30329 0.14229 3.29945 0.145266 3.29477 L1.91166 0.23566 L1.91826 0.239488 C2.01481 0.10677 2.15858 0.0255227 2.31321 0.00638069 L2.31321 0 L3.84926 0 L3.84926 0.00382842 C3.93178 0.0106345 4.0141 0.0333922 4.09066 0.0776318 C4.36738 0.23715 4.46201 0.591065 4.30229 0.86756 C4.28868 0.89096 4.27209 0.911376 4.2557 0.932008 L4.26252 0.936048 L2.2041 4.50158 C2.20389 4.50199 2.20389 4.50222 2.20368 4.50265 C2.20346 4.50306 2.20325 4.50327 2.20304 4.5035 L2.1824 4.53922 L2.17879 4.5371 C2.00992 4.78487 1.6777 4.86654 1.41397 4.71406 C1.38311 4.69618 1.35525 4.67513 1.3291 4.65301 L1.32378 4.66217 L0.263948 4.05046 L0.268839 4.04196 C0.0635941 3.87243 0 3.58148 0.121871 3.33881 L0.120382 3.33796 Z" transform="translate(16.5585, 32.9141)"/>
   </g>
  </g>
 </g>
</svg>
