<?xml version="1.0" encoding="UTF-8"?>
<svg width="16pt" version="1.1" xmlns="http://www.w3.org/2000/svg" height="16pt" viewBox="0 0 16 16" xmlns:xlink="http://www.w3.org/1999/xlink">
 <defs>
  <linearGradient id="Grad0" y1="0" x1="0" y2="16" gradientUnits="userSpaceOnUse" x2="16">
   <stop offset="0%" stop-color="#ffffff" stop-opacity="1"/>
   <stop offset="50%" stop-color="#ff5b09" stop-opacity="1"/>
  </linearGradient>
  <clipPath id="Clip0">
   <path d="M0 0 L13 0 L13 12.6435 L0 12.6435 L0 0 Z" transform="translate(1.5, 1.67825)"/>
  </clipPath>
  <clipPath id="Clip1">
   <path d="M0 0 L13 0 L13 12.6435 L0 12.6435 L0 0 Z" transform="translate(1.5, 1.67825)"/>
  </clipPath>
 </defs>
 <g id="Hintergrund">
  <path style="fill:url(#Grad0); fill-rule:evenodd;stroke:none;" d="M0 0 L16 0 L16 16 L0 16 L0 0 Z" transform="translate(0, -1.13687e-13)"/>
  <path style="fill:none;stroke:none;" d="M0 0 L16 0 L16 16 L0 16 L0 0 Z" transform="translate(0, -1.13687e-13)"/>
  <g id="Kopie von Layer_1 (3)" clip-path="url(#Clip0)">
   <g id="Gruppe25" clip-path="url(#Clip1)">
    <path style="fill:#ffffff; fill-rule:evenodd;stroke:none;" d="M0.469872 0 C1.8959 0 3.05183 1.15593 3.05183 2.58196 C3.05183 4.00799 1.8959 5.16391 0.469872 5.16391 C0.235367 5.16391 0.0426842 4.99163 0.00743084 4.76714 L0 4.76714 L0 0.470044 C0 0.210656 0.210483 0 0.469872 0 Z" transform="translate(11.4482, 4.2552)"/>
    <path style="fill:#ffffff; fill-rule:evenodd;stroke:none;" d="M0 0.469872 C0 0.210483 0.21031 0 0.469872 0 C0.577532 0 0.675515 0.0376726 0.754662 0.0985021 L4.88933 2.4857 L8.6165 2.4857 C8.87606 2.4857 9.08636 2.69602 9.08636 2.95558 L9.08636 7.41563 L9.08049 7.41563 C9.05163 7.64737 8.85618 7.82744 8.6165 7.82744 L5.30925 7.82744 L0.788533 10.4374 C0.70472 10.5152 0.593258 10.5637 0.469872 10.5637 C0.210483 10.5637 0 10.3532 0 10.0939 C0 10.076 0.0032834 10.0591 0.00518431 10.0418 L0 10.0418 L0 9.24621 L0 1.29244 L0 0.497175 L0.00276497 0.497175 C0.00224653 0.488016 0 0.479376 0 0.469872 Z" transform="translate(1.5, 1.67825)"/>
    <path style="fill:#ffffff; fill-rule:evenodd;stroke:none;" d="M0.097811 2.71209 L0.104377 2.70068 C0.106624 2.69653 0.107661 2.69221 0.11008 2.68807 C0.112499 2.68392 0.11561 2.6808 0.118029 2.677 L1.55322 0.191474 L1.55858 0.194584 C1.63703 0.0867508 1.75385 0.0207372 1.87948 0.00518431 L1.87948 0 L3.12752 0 L3.12752 0.00311059 C3.19457 0.00864052 3.26145 0.0271312 3.32366 0.0630758 C3.54849 0.192684 3.62538 0.48024 3.49561 0.704893 C3.48455 0.723902 3.47107 0.740492 3.45776 0.757255 L3.4633 0.760538 L1.79083 3.65753 C1.79066 3.65787 1.79066 3.65805 1.79049 3.6584 C1.79031 3.65874 1.79014 3.65891 1.78997 3.65909 L1.7732 3.68811 L1.77027 3.68639 C1.63306 3.88771 1.36313 3.95407 1.14885 3.83017 C1.12378 3.81565 1.10114 3.79854 1.07989 3.78057 L1.07557 3.78801 L0.214458 3.291 L0.218432 3.28409 C0.0516702 3.14635 0 2.90995 0.0990204 2.71278 L0.097811 2.71209 Z" transform="translate(6.82878, 10.3677)"/>
   </g>
  </g>
 </g>
</svg>
