<?xml version="1.0" encoding="UTF-8"?>
<svg width="16pt" version="1.1" xmlns="http://www.w3.org/2000/svg" height="16pt" viewBox="0 0 16 16" xmlns:xlink="http://www.w3.org/1999/xlink">
 <defs>
  <linearGradient id="Grad0" y1="0" x1="0" y2="16" gradientUnits="userSpaceOnUse" x2="16">
   <stop offset="0%" stop-color="#ffffff" stop-opacity="1"/>
   <stop offset="50%" stop-color="#ff5b09" stop-opacity="1"/>
  </linearGradient>
 </defs>
 <g id="Hintergrund">
  <path style="fill:url(#Grad0); fill-rule:evenodd;stroke:none;" d="M0 0 L16 0 L16 16 L0 16 L0 0 Z" transform="translate(0, -3.97904e-13)"/>
  <path style="fill:none;stroke:none;" d="M0 0 L16 0 L16 16 L0 16 L0 0 Z" transform="translate(0, -3.97904e-13)"/>
  <path style="fill:#ffffff; fill-rule:evenodd;stroke:none;" d="M0 0 L11 0 L11 2 L0 2 L0 0 Z" transform="translate(4, 1)"/>
  <path style="fill:#ffffff; fill-rule:evenodd;stroke:none;" d="M0 0 L2 0 L2 2 L0 2 L0 0 Z" transform="translate(1, 1)"/>
  <path style="fill:#ffffff; fill-rule:evenodd;stroke:none;" d="M0 0 L11 0 L11 2 L0 2 L0 0 Z" transform="translate(4, 4)"/>
  <path style="fill:#ffffff; fill-rule:evenodd;stroke:none;" d="M0 0 L11 0 L11 2 L0 2 L0 0 Z" transform="translate(4, 7)"/>
  <path style="fill:#ffffff; fill-rule:evenodd;stroke:none;" d="M0 0 L11 0 L11 2 L0 2 L0 0 Z" transform="translate(4, 10)"/>
  <path style="fill:#ffffff; fill-rule:evenodd;stroke:none;" d="M0 0 L11 0 L11 2 L0 2 L0 0 Z" transform="translate(4, 13)"/>
 </g>
</svg>
