<?xml version="1.0" encoding="UTF-8"?>
<svg width="16pt" version="1.1" xmlns="http://www.w3.org/2000/svg" height="16pt" viewBox="0 0 16 16" xmlns:xlink="http://www.w3.org/1999/xlink">
 <defs>
  <linearGradient id="Grad0" y1="0" x1="0" y2="16" gradientUnits="userSpaceOnUse" x2="16">
   <stop offset="0%" stop-color="#ffffff" stop-opacity="1"/>
   <stop offset="50%" stop-color="#ff5d00" stop-opacity="1"/>
  </linearGradient>
  <clipPath id="Clip0">
   <path d="M0 0 L14 0 L14 3.53839 L0 3.53839 L0 0 Z" transform="translate(1, 1.2308)"/>
  </clipPath>
 </defs>
 <g id="Hintergrund">
  <path style="fill:url(#Grad0); fill-rule:evenodd;stroke:none;" d="M0 0 L16 0 L16 16 L0 16 L0 0 Z" transform="translate(0, 0)"/>
  <path style="fill:none;stroke:none;" d="M0 0 L16 0 L16 16 L0 16 L0 0 Z" transform="translate(0, 0)"/>
  <g id="Gruppe89" clip-path="url(#Clip0)">
   <path style="fill:#ffffff; fill-rule:evenodd;stroke:none;" id="Text201+0" d="M0 0.434176 C0 0.434176 0 0.345103 0.0322799 0.267218 C0.0322799 0.267218 0.0645599 0.189262 0.123562 0.12912 C0.123562 0.12912 0.182563 0.0689779 0.262729 0.0344889 C0.262729 0.0344889 0.342894 0 0.434176 0 C0.434176 0 0.52104 0 0.600065 0.0344889 C0.600065 0.0344889 0.679161 0.0689779 0.738163 0.128051 C0.738163 0.128051 0.797165 0.187053 0.830585 0.267218 C0.830585 0.267218 0.864005 0.347383 0.864005 0.434176 C0.864005 0.434176 0.864005 0.523249 0.829445 0.603414 C0.829445 0.603414 0.794956 0.683579 0.737023 0.741512 C0.737023 0.741512 0.679161 0.799445 0.601205 0.833934 C0.601205 0.833934 0.523249 0.868423 0.434176 0.868423 C0.434176 0.868423 0.340685 0.868423 0.261589 0.833934 C0.261589 0.833934 0.182563 0.799445 0.123562 0.741512 C0.123562 0.741512 0.0645599 0.683579 0.0322799 0.604554 C0.0322799 0.604554 0 0.525529 0 0.434176 Z" transform="translate(1, 3.90077)"/>
   <path style="fill:#ffffff; fill-rule:evenodd;stroke:none;" id="Text201+1" d="M0 0.434176 C0 0.434176 0 0.345103 0.0322799 0.267218 C0.0322799 0.267218 0.0645599 0.189262 0.123562 0.12912 C0.123562 0.12912 0.182563 0.0689779 0.262729 0.0344889 C0.262729 0.0344889 0.342894 0 0.434176 0 C0.434176 0 0.52104 0 0.600065 0.0344889 C0.600065 0.0344889 0.679161 0.0689779 0.738163 0.128051 C0.738163 0.128051 0.797165 0.187053 0.830585 0.267218 C0.830585 0.267218 0.864005 0.347383 0.864005 0.434176 C0.864005 0.434176 0.864005 0.523249 0.829445 0.603414 C0.829445 0.603414 0.794956 0.683579 0.737023 0.741512 C0.737023 0.741512 0.679161 0.799445 0.601205 0.833934 C0.601205 0.833934 0.523249 0.868423 0.434176 0.868423 C0.434176 0.868423 0.340685 0.868423 0.261589 0.833934 C0.261589 0.833934 0.182563 0.799445 0.123562 0.741512 C0.123562 0.741512 0.0645599 0.683579 0.0322799 0.604554 C0.0322799 0.604554 0 0.525529 0 0.434176 Z" transform="translate(2.17799, 3.90077)"/>
   <path style="fill:#ffffff; fill-rule:evenodd;stroke:none;" id="Text201+3" d="M1.30046 0 L1.87053 0 L0.583462 3.46493 L0 3.46493 L1.30046 0 Z" transform="translate(4.22215, 1.2308)"/>
   <path style="fill:#ffffff; fill-rule:evenodd;stroke:none;" id="Text201+5" d="M0 0.434176 C0 0.434176 0 0.345103 0.0322799 0.267218 C0.0322799 0.267218 0.0645599 0.189262 0.123562 0.12912 C0.123562 0.12912 0.182563 0.0689779 0.262729 0.0344889 C0.262729 0.0344889 0.342894 0 0.434176 0 C0.434176 0 0.52104 0 0.600065 0.0344889 C0.600065 0.0344889 0.679161 0.0689779 0.738163 0.128051 C0.738163 0.128051 0.797165 0.187053 0.830585 0.267218 C0.830585 0.267218 0.864005 0.347383 0.864005 0.434176 C0.864005 0.434176 0.864005 0.523249 0.829445 0.603414 C0.829445 0.603414 0.794956 0.683579 0.737023 0.741512 C0.737023 0.741512 0.679161 0.799445 0.601205 0.833934 C0.601205 0.833934 0.523249 0.868423 0.434176 0.868423 C0.434176 0.868423 0.340685 0.868423 0.261589 0.833934 C0.261589 0.833934 0.182563 0.799445 0.123562 0.741512 C0.123562 0.741512 0.0645599 0.683579 0.0322799 0.604554 C0.0322799 0.604554 0 0.525529 0 0.434176 Z" transform="translate(6.979, 3.90077)"/>
   <path style="fill:#ffffff; fill-rule:evenodd;stroke:none;" id="Text201+6" d="M0 0.434176 C0 0.434176 0 0.345103 0.0322799 0.267218 C0.0322799 0.267218 0.0645599 0.189262 0.123562 0.12912 C0.123562 0.12912 0.182563 0.0689779 0.262729 0.0344889 C0.262729 0.0344889 0.342894 0 0.434176 0 C0.434176 0 0.52104 0 0.600065 0.0344889 C0.600065 0.0344889 0.679161 0.0689779 0.738163 0.128051 C0.738163 0.128051 0.797165 0.187053 0.830585 0.267218 C0.830585 0.267218 0.864005 0.347383 0.864005 0.434176 C0.864005 0.434176 0.864005 0.523249 0.829445 0.603414 C0.829445 0.603414 0.794956 0.683579 0.737023 0.741512 C0.737023 0.741512 0.679161 0.799445 0.601205 0.833934 C0.601205 0.833934 0.523249 0.868423 0.434176 0.868423 C0.434176 0.868423 0.340685 0.868423 0.261589 0.833934 C0.261589 0.833934 0.182563 0.799445 0.123562 0.741512 C0.123562 0.741512 0.0645599 0.683579 0.0322799 0.604554 C0.0322799 0.604554 0 0.525529 0 0.434176 Z" transform="translate(8.15699, 3.90077)"/>
   <path style="fill:#ffffff; fill-rule:evenodd;stroke:none;" id="Text201+8" d="M1.30046 0 L1.87053 0 L0.583462 3.46493 L0 3.46493 L1.30046 0 Z" transform="translate(10.2012, 1.2308)"/>
   <path style="fill:#ffffff; fill-rule:evenodd;stroke:none;" id="Text201+10" d="M0 0.434176 C0 0.434176 0 0.345103 0.0322799 0.267218 C0.0322799 0.267218 0.0645599 0.189262 0.123562 0.12912 C0.123562 0.12912 0.182563 0.0689779 0.262729 0.0344889 C0.262729 0.0344889 0.342894 0 0.434176 0 C0.434176 0 0.52104 0 0.600065 0.0344889 C0.600065 0.0344889 0.679161 0.0689779 0.738163 0.128051 C0.738163 0.128051 0.797165 0.187053 0.830585 0.267218 C0.830585 0.267218 0.864005 0.347383 0.864005 0.434176 C0.864005 0.434176 0.864005 0.523249 0.829445 0.603414 C0.829445 0.603414 0.794956 0.683579 0.737023 0.741512 C0.737023 0.741512 0.679161 0.799445 0.601205 0.833934 C0.601205 0.833934 0.523249 0.868423 0.434176 0.868423 C0.434176 0.868423 0.340685 0.868423 0.261589 0.833934 C0.261589 0.833934 0.182563 0.799445 0.123562 0.741512 C0.123562 0.741512 0.0645599 0.683579 0.0322799 0.604554 C0.0322799 0.604554 0 0.525529 0 0.434176 Z" transform="translate(12.958, 3.90077)"/>
   <path style="fill:#ffffff; fill-rule:evenodd;stroke:none;" id="Text201+11" d="M0 0.434176 C0 0.434176 0 0.345103 0.0322799 0.267218 C0.0322799 0.267218 0.0645599 0.189262 0.123562 0.12912 C0.123562 0.12912 0.182563 0.0689779 0.262729 0.0344889 C0.262729 0.0344889 0.342894 0 0.434176 0 C0.434176 0 0.52104 0 0.600065 0.0344889 C0.600065 0.0344889 0.679161 0.0689779 0.738163 0.128051 C0.738163 0.128051 0.797165 0.187053 0.830585 0.267218 C0.830585 0.267218 0.864005 0.347383 0.864005 0.434176 C0.864005 0.434176 0.864005 0.523249 0.829445 0.603414 C0.829445 0.603414 0.794956 0.683579 0.737023 0.741512 C0.737023 0.741512 0.679161 0.799445 0.601205 0.833934 C0.601205 0.833934 0.523249 0.868423 0.434176 0.868423 C0.434176 0.868423 0.340685 0.868423 0.261589 0.833934 C0.261589 0.833934 0.182563 0.799445 0.123562 0.741512 C0.123562 0.741512 0.0645599 0.683579 0.0322799 0.604554 C0.0322799 0.604554 0 0.525529 0 0.434176 Z" transform="translate(14.136, 3.90077)"/>
  </g>
 </g>
</svg>
